<svg width="761" height="375" viewBox="0 0 761 375" fill="none" xmlns="http://www.w3.org/2000/svg">
<path d="M49.8345 20.8186H79.3701V21.2482C68.4151 21.2482 63.582 31.344 61.0043 37.6807L37.6981 96H37.2685L13.4252 36.0697C10.955 29.733 7.51814 21.2482 -1.22125e-06 21.2482V20.8186H28.5689V21.2482H23.7358C22.2322 21.2482 20.836 22 19.9768 23.2889C19.225 24.4703 19.0101 26.0813 19.5472 27.4775L41.9942 83.6488L60.5747 37.0363C61.9709 33.4921 61.5413 29.5182 59.3933 26.2961C57.2453 23.1815 53.701 21.2482 49.8345 21.2482V20.8186ZM113.531 95.5704C115.034 95.5704 116.43 94.8186 117.182 93.6372C118.041 92.3483 118.256 90.7373 117.719 89.3411L110.631 71.8346H79.9138L76.6917 79.7823C75.2955 83.3266 75.7251 87.3004 77.8731 90.5225C80.0212 93.6372 83.5654 95.5704 87.4319 95.5704V96H57.8964V95.5704C68.8514 95.5704 73.6845 85.4746 76.2621 79.1379L99.4609 20.8186H99.8905L123.841 80.8563C126.311 87.0856 129.748 95.5704 137.266 95.5704V96H108.59V95.5704H113.531ZM80.0212 71.4049H110.523L95.2723 33.1698L80.0212 71.4049ZM146.96 32.5254C146.96 51.643 189.169 52.6096 189.169 76.3454C189.169 87.4078 178.751 96.8592 165.326 96.8592C153.19 96.8592 147.497 88.9115 143.201 91.9187L142.772 92.0261L140.301 70.3309H140.731C143.094 80.2119 151.901 96.2148 165.326 96.2148C173.918 96.2148 180.792 89.5559 180.685 81.7155C180.685 61.3092 139.442 59.3759 139.442 37.6807C139.442 28.122 148.571 20.0668 160.171 20.0668C168.548 20.0668 174.24 24.2555 178.536 24.2555C179.825 24.2555 180.47 23.8259 180.362 22.5371H180.792L183.262 44.1248L182.833 44.2322C181.007 37.1437 176.174 20.7112 160.171 20.7112C152.33 20.7112 146.96 26.0813 146.96 32.5254ZM257.85 68.8273H258.28L255.81 90.5225L255.38 90.4151C255.058 90.2003 254.628 90.0929 254.199 90.0929C250.654 90.0929 244.747 96.8592 232.718 96.8592C214.03 96.8592 198.887 79.5675 198.887 58.4093C198.887 37.2511 214.03 20.0668 232.718 20.0668C242.277 20.0668 246.681 24.2555 251.084 24.2555C252.265 24.2555 253.017 23.8259 252.91 22.5371H253.339L255.702 44.1248L255.273 44.2322C253.554 37.1437 248.721 20.7112 232.718 20.7112C219.937 20.7112 209.627 37.5733 209.627 58.4093C209.627 79.2453 219.937 96.2148 232.718 96.2148C249.043 96.2148 255.487 78.7083 257.85 68.8273ZM301.732 20.0668C320.42 20.0668 335.564 37.2511 335.564 58.4093C335.564 79.5675 320.42 96.8592 301.732 96.8592C283.044 96.8592 267.901 79.5675 267.901 58.4093C267.901 37.2511 283.044 20.0668 301.732 20.0668ZM301.732 96.2148C314.513 96.2148 324.824 79.2453 324.824 58.4093C324.824 37.5733 314.513 20.7112 301.732 20.7112C288.952 20.7112 278.641 37.5733 278.641 58.4093C278.641 79.2453 288.952 96.2148 301.732 96.2148ZM388.989 20.8186H414.551V21.2482C402.199 21.2482 402.092 33.9217 402.092 39.8288V80.5341V96H401.662L354.083 24.4703V76.9899C354.083 82.897 354.191 95.5704 366.542 95.5704V96H340.98V95.5704C353.332 95.5704 353.439 82.897 353.439 76.9899V25.1147C353.439 22.9667 351.72 21.2482 349.572 21.2482H340.98V20.8186H362.353L401.448 79.5675V39.8288C401.448 33.9217 401.34 21.2482 388.989 21.2482V20.8186ZM478.842 68.8273H479.272L476.802 90.5225L476.372 90.4151C476.05 90.2003 475.62 90.0929 475.191 90.0929C471.647 90.0929 465.739 96.8592 453.71 96.8592C435.022 96.8592 419.879 79.5675 419.879 58.4093C419.879 37.2511 435.022 20.0668 453.71 20.0668C463.269 20.0668 467.673 24.2555 472.076 24.2555C473.258 24.2555 474.009 23.8259 473.902 22.5371H474.332L476.694 44.1248L476.265 44.2322C474.546 37.1437 469.713 20.7112 453.71 20.7112C440.93 20.7112 430.619 37.5733 430.619 58.4093C430.619 79.2453 440.93 96.2148 453.71 96.2148C470.035 96.2148 476.48 78.7083 478.842 68.8273ZM540.496 75.9158L540.926 76.0232L538.563 96H485.721V95.5704H488.836C493.991 95.5704 498.18 94.7112 498.18 86.3338V30.5922C498.18 22.1074 493.991 21.2482 488.836 21.2482H485.721V20.8186H537.059L539.422 40.7954L538.993 40.9028C537.811 34.3513 535.019 21.2482 515.149 21.2482H507.094V58.0871H514.72C520.519 58.0871 527.286 57.9797 527.286 45.6285H527.715V71.1901H527.286C527.286 58.8389 520.519 58.7315 514.72 58.7315H507.094V95.5704H516.653C535.341 95.5704 539.315 82.4674 540.496 75.9158ZM601.012 75.9158L601.442 76.0232L599.186 96H546.345V95.5704H549.459C554.615 95.5704 558.803 94.7112 558.803 86.3338V30.5922C558.803 22.1074 554.615 21.2482 549.459 21.2482H546.345V20.8186H580.176V21.2482H576.954C571.799 21.2482 567.718 22.1074 567.718 30.5922V95.5704H577.169C595.857 95.5704 599.831 82.4674 601.012 75.9158ZM640.615 20.0668C659.303 20.0668 674.447 37.2511 674.447 58.4093C674.447 79.5675 659.303 96.8592 640.615 96.8592C621.927 96.8592 606.783 79.5675 606.783 58.4093C606.783 37.2511 621.927 20.0668 640.615 20.0668ZM640.615 96.2148C653.396 96.2148 663.706 79.2453 663.706 58.4093C663.706 37.5733 653.396 20.7112 640.615 20.7112C627.834 20.7112 617.524 37.5733 617.524 58.4093C617.524 79.2453 627.834 96.2148 640.615 96.2148ZM692.78 32.5254C692.78 51.643 734.989 52.6096 734.989 76.3454C734.989 87.4078 724.571 96.8592 711.146 96.8592C699.01 96.8592 693.317 88.9115 689.021 91.9187L688.592 92.0261L686.122 70.3309H686.551C688.914 80.2119 697.721 96.2148 711.146 96.2148C719.738 96.2148 726.612 89.5559 726.505 81.7155C726.505 61.3092 685.262 59.3759 685.262 37.6807C685.262 28.122 694.391 20.0668 705.991 20.0668C714.368 20.0668 720.061 24.2555 724.357 24.2555C725.645 24.2555 726.29 23.8259 726.182 22.5371H726.612L729.082 44.1248L728.653 44.2322C726.827 37.1437 721.994 20.7112 705.991 20.7112C698.151 20.7112 692.78 26.0813 692.78 32.5254ZM185.594 171.74C188.494 171.74 190.964 174.103 190.964 177.11C190.964 187.206 179.257 192.898 167.873 196.98C173.028 201.168 176.25 206.861 176.25 213.305C176.25 225.763 163.899 235.859 148.648 235.859C131.893 235.859 118.36 225.763 118.36 213.305C118.36 202.135 129.208 192.898 143.492 191.073C133.397 189.676 125.771 183.125 125.771 175.177C125.771 166.263 135.437 159.067 147.359 159.067C159.28 159.067 168.947 167.122 168.947 177.11C168.947 179.473 166.906 181.514 164.436 181.514C161.966 181.514 160.032 179.473 160.032 177.11C160.032 167.444 154.34 159.711 147.359 159.711C140.485 159.711 134.9 166.585 134.9 175.177C134.9 183.769 140.485 190.75 147.359 190.75H155.199V191.395H148.648C138.23 191.395 129.745 201.168 129.745 213.305C129.745 225.334 138.23 235.215 148.648 235.215C163.469 235.215 175.606 225.334 175.606 213.305C175.606 207.612 173.028 202.35 168.41 198.376C167.658 197.732 166.584 197.517 165.617 197.839C152.622 202.35 147.251 203.531 145.64 207.183C147.037 205.894 148.862 205.142 150.903 205.142C155.307 205.142 158.958 208.794 158.958 213.197C158.958 217.708 155.307 221.253 150.903 221.253C146.5 221.253 142.848 217.708 142.848 213.197C142.848 195.798 183.553 189.247 189.46 180.655C188.494 181.729 187.098 182.48 185.594 182.48C182.587 182.48 180.224 180.01 180.224 177.11C180.224 174.103 182.587 171.74 185.594 171.74ZM281.032 234.57C282.535 234.57 283.931 233.819 284.683 232.637C285.542 231.348 285.757 229.737 285.22 228.341L278.132 210.835H247.415L244.193 218.782C242.796 222.327 243.226 226.3 245.374 229.522C247.522 232.637 251.066 234.57 254.933 234.57V235H225.397V234.57C236.352 234.57 241.185 224.475 243.763 218.138L266.962 159.819H267.391L291.342 219.856C293.812 226.086 297.249 234.57 304.767 234.57V235H276.091V234.57H281.032ZM247.522 210.405H278.024L262.773 172.17L247.522 210.405ZM370.422 228.126C373.107 232.1 377.725 234.57 382.558 234.57V235H372.14C367.307 235 362.689 232.53 360.004 228.556L344.86 205.787C342.175 201.705 337.664 199.235 332.724 199.235H330.468V225.334C330.468 233.711 334.55 234.57 339.705 234.57H342.927V235H309.095V234.57H312.21C317.365 234.57 321.554 233.711 321.554 225.334V169.592C321.554 161.107 317.365 160.248 312.21 160.248H309.095V159.819H339.168C357.319 159.819 366.448 168.626 366.448 179.581C366.448 189.032 359.467 196.98 345.719 198.806C349.049 198.913 352.056 200.524 353.882 203.316L370.422 228.126ZM330.468 160.248V198.806H339.168C350.552 198.806 356.245 190.213 356.245 179.581C356.245 168.948 350.552 160.248 339.168 160.248H330.468ZM441.4 234.57C442.904 234.57 444.3 233.819 445.052 232.637C445.911 231.348 446.126 229.737 445.589 228.341L438.5 210.835H407.783L404.561 218.782C403.165 222.327 403.595 226.3 405.743 229.522C407.891 232.637 411.435 234.57 415.302 234.57V235H385.766V234.57C396.721 234.57 401.554 224.475 404.132 218.138L427.331 159.819H427.76L451.711 219.856C454.181 226.086 457.618 234.57 465.136 234.57V235H436.46V234.57H441.4ZM407.891 210.405H438.393L423.142 172.17L407.891 210.405ZM489.375 159.819V160.248C484.22 160.248 480.139 161.107 480.139 169.592V212.338C480.139 226.945 486.798 235.215 496.894 235.215C503.66 235.215 509.997 232.852 514.615 228.663C519.341 224.475 521.918 218.675 521.918 212.338V178.829C521.918 172.922 521.811 160.248 509.46 160.248V159.819H535.021V160.248C522.67 160.248 522.563 172.922 522.563 178.829V212.338C522.563 225.871 511.071 235.859 496.894 235.859C482.716 235.859 471.224 225.871 471.224 212.338V169.592C471.224 161.107 467.036 160.248 461.88 160.248H458.766V159.819H489.375ZM509.997 133.183L510.426 133.827L483.683 149.078L483.253 148.434L496.894 130.927L509.997 133.183ZM541.086 159.819H574.81V160.248H571.696C566.54 160.248 562.459 161.107 562.459 169.592V222.649C562.459 239.94 550.323 254.118 535.072 254.547V254.118C545.382 253.044 553.437 242.626 553.437 222.649L553.545 169.592C553.545 161.107 549.356 160.248 544.201 160.248H541.086V159.819ZM613.974 159.067C632.662 159.067 647.806 176.251 647.806 197.409C647.806 218.567 632.662 235.859 613.974 235.859C595.286 235.859 580.143 218.567 580.143 197.409C580.143 176.251 595.286 159.067 613.974 159.067ZM613.974 235.215C626.755 235.215 637.066 218.245 637.066 197.409C637.066 176.573 626.755 159.711 613.974 159.711C601.193 159.711 590.883 176.573 590.883 197.409C590.883 218.245 601.193 235.215 613.974 235.215Z" fill="#F2F2F2"/>
<line x1="5.25278" y1="343.375" x2="214.229" y2="343.375" stroke="url(#paint0_linear_31_24)" stroke-width="0.750995"/>
<line y1="-0.462409" x2="208.976" y2="-0.462409" transform="matrix(-1 8.74228e-08 8.74228e-08 1 760.898 343.75)" stroke="url(#paint1_linear_31_24)" stroke-width="0.924818"/>
<path d="M271.618 322.347L284.047 355.427H281.023L278.14 347.866H262.025L259.19 355.427H256.165L268.594 322.347H271.618ZM263.112 345.031H277.1L270.106 326.364L263.112 345.031ZM309.371 326.695C311.009 328.302 312.175 330.161 312.868 332.271C313.561 334.382 313.908 336.588 313.908 338.887C313.908 341.219 313.561 343.44 312.868 345.551C312.175 347.63 311.009 349.473 309.371 351.08C307.733 352.686 305.843 353.821 303.7 354.482C301.558 355.112 299.353 355.427 297.084 355.427H288.295V322.347H297.084C299.353 322.347 301.558 322.678 303.7 323.34C305.843 323.97 307.733 325.088 309.371 326.695ZM307.386 349.048C308.773 347.724 309.733 346.181 310.269 344.416C310.805 342.621 311.072 340.778 311.072 338.887C311.072 336.997 310.805 335.17 310.269 333.406C309.733 331.61 308.773 330.05 307.386 328.727C306.032 327.404 304.441 326.49 302.613 325.986C300.818 325.451 298.975 325.183 297.084 325.183H291.13V352.592H297.084C298.975 352.592 300.818 352.34 302.613 351.836C304.441 351.3 306.032 350.371 307.386 349.048ZM340.186 322.347H343.21L330.782 355.427H327.757L315.329 322.347H318.353L329.27 351.41L340.186 322.347ZM360.546 322.111C362.752 322.111 364.815 322.552 366.737 323.434C368.659 324.316 370.344 325.514 371.793 327.026C373.243 328.538 374.377 330.318 375.196 332.366C376.047 334.414 376.472 336.588 376.472 338.887C376.472 341.219 376.047 343.408 375.196 345.456C374.377 347.472 373.243 349.237 371.793 350.749C370.344 352.261 368.659 353.458 366.737 354.34C364.815 355.222 362.752 355.664 360.546 355.664C358.341 355.664 356.262 355.222 354.308 354.34C352.387 353.458 350.701 352.261 349.252 350.749C347.834 349.237 346.7 347.472 345.849 345.456C345.03 343.408 344.621 341.219 344.621 338.887C344.621 336.588 345.03 334.414 345.849 332.366C346.7 330.318 347.834 328.538 349.252 327.026C350.701 325.514 352.387 324.316 354.308 323.434C356.262 322.552 358.341 322.111 360.546 322.111ZM360.546 352.828C362.342 352.828 364.028 352.466 365.603 351.741C367.209 351.017 368.596 350.024 369.761 348.764C370.959 347.504 371.904 346.023 372.597 344.322C373.29 342.621 373.636 340.809 373.636 338.887C373.636 336.966 373.29 335.154 372.597 333.453C371.904 331.752 370.959 330.271 369.761 329.011C368.596 327.75 367.209 326.758 365.603 326.033C364.028 325.309 362.342 324.947 360.546 324.947C358.75 324.947 357.049 325.309 355.443 326.033C353.867 326.758 352.481 327.75 351.284 329.011C350.118 330.271 349.189 331.752 348.496 333.453C347.803 335.154 347.456 336.966 347.456 338.887C347.456 340.809 347.803 342.621 348.496 344.322C349.189 346.023 350.118 347.504 351.284 348.764C352.481 350.024 353.867 351.017 355.443 351.741C357.049 352.466 358.75 352.828 360.546 352.828ZM397.143 324.947C395.347 324.947 393.646 325.309 392.039 326.033C390.464 326.758 389.077 327.75 387.88 329.011C386.715 330.271 385.785 331.752 385.092 333.453C384.399 335.154 384.052 336.966 384.052 338.887C384.052 340.809 384.399 342.621 385.092 344.322C385.785 346.023 386.715 347.504 387.88 348.764C389.077 350.024 390.464 351.017 392.039 351.741C393.646 352.466 395.347 352.828 397.143 352.828C398.97 352.828 400.703 352.45 402.341 351.694C403.979 350.938 405.413 349.867 406.641 348.48L408.768 350.371C407.256 352.072 405.491 353.379 403.475 354.293C401.49 355.207 399.379 355.664 397.143 355.664C394.937 355.664 392.858 355.222 390.905 354.34C388.983 353.458 387.297 352.261 385.848 350.749C384.431 349.237 383.296 347.472 382.446 345.456C381.627 343.408 381.217 341.219 381.217 338.887C381.217 336.588 381.627 334.414 382.446 332.366C383.296 330.318 384.431 328.538 385.848 327.026C387.297 325.514 388.983 324.316 390.905 323.434C392.858 322.552 394.937 322.111 397.143 322.111C399.379 322.111 401.49 322.568 403.475 323.482C405.491 324.395 407.256 325.703 408.768 327.404L406.641 329.294C405.413 327.908 403.979 326.837 402.341 326.081C400.703 325.325 398.97 324.947 397.143 324.947ZM427.049 322.347L439.478 355.427H436.453L433.571 347.866H417.456L414.621 355.427H411.596L424.025 322.347H427.049ZM418.543 345.031H432.531L425.537 326.364L418.543 345.031ZM456.814 324.947C455.018 324.947 453.317 325.309 451.71 326.033C450.135 326.758 448.749 327.75 447.551 329.011C446.386 330.271 445.456 331.752 444.763 333.453C444.07 335.154 443.724 336.966 443.724 338.887C443.724 340.809 444.07 342.621 444.763 344.322C445.456 346.023 446.386 347.504 447.551 348.764C448.749 350.024 450.135 351.017 451.71 351.741C453.317 352.466 455.018 352.828 456.814 352.828C458.641 352.828 460.374 352.45 462.012 351.694C463.65 350.938 465.084 349.867 466.312 348.48L468.439 350.371C466.927 352.072 465.162 353.379 463.146 354.293C461.161 355.207 459.051 355.664 456.814 355.664C454.608 355.664 452.529 355.222 450.576 354.34C448.654 353.458 446.968 352.261 445.519 350.749C444.102 349.237 442.967 347.472 442.117 345.456C441.298 343.408 440.888 341.219 440.888 338.887C440.888 336.588 441.298 334.414 442.117 332.366C442.967 330.318 444.102 328.538 445.519 327.026C446.968 325.514 448.654 324.316 450.576 323.434C452.529 322.552 454.608 322.111 456.814 322.111C459.051 322.111 461.161 322.568 463.146 323.482C465.162 324.395 466.927 325.703 468.439 327.404L466.312 329.294C465.084 327.908 463.65 326.837 462.012 326.081C460.374 325.325 458.641 324.947 456.814 324.947ZM476.927 355.427H474.092V322.347H476.927V355.427ZM496.642 322.347L509.071 355.427H506.046L503.164 347.866H487.049L484.214 355.427H481.189L493.618 322.347H496.642ZM488.136 345.031H502.124L495.13 326.364L488.136 345.031Z" fill="white"/>
<defs>
<linearGradient id="paint0_linear_31_24" x1="5.25278" y1="344.25" x2="214.229" y2="344.25" gradientUnits="userSpaceOnUse">
<stop stop-color="#F2F2F2" stop-opacity="0"/>
<stop offset="0.5" stop-color="#F2F2F2"/>
</linearGradient>
<linearGradient id="paint1_linear_31_24" x1="0" y1="0.5" x2="208.976" y2="0.5" gradientUnits="userSpaceOnUse">
<stop stop-color="#F2F2F2" stop-opacity="0"/>
<stop offset="0.5" stop-color="#F2F2F2"/>
</linearGradient>
</defs>
</svg>
