<svg width="894" height="272" viewBox="0 0 894 272" fill="none" xmlns="http://www.w3.org/2000/svg">
<path fill-rule="evenodd" clip-rule="evenodd" d="M144.424 212.392C144.846 212.678 134.228 243.604 143.314 225.932C145.947 222.066 167.344 170.47 167.344 170.47C167.344 170.47 200.03 91.3989 202.844 84.5112C230.845 15.9553 244.588 6.55906 210.985 3.39262C207.582 3.07205 207.561 -0.0348714 211.018 0.000296257C236.055 0.255938 235.976 -0.086269 261.021 0.0354653C273.067 0.0936272 256.022 4.02429 255.485 4.14873C241.383 7.40039 245.115 12.6133 211.749 86.5885C209.069 92.5305 173.372 179.046 163.428 200.337C145.529 238.662 138.522 263.847 136.931 269.561C135.098 276.15 134.84 266.839 102.487 191.337C25.8295 12.4361 26.1559 9.82289 14.1818 5.54596C8.7484 3.60632 -2.91008 3.54411 0.671234 0.407423C1.58848 -0.396023 1.80833 0.400652 37.0361 0.251866C41.0355 0.235635 86.8467 0.0422111 87.0342 0.0854944C88.3386 0.388477 90.1083 3.03824 85.6435 3.39262C50.347 6.19792 67.5912 25.1519 98.9449 100.485C121.392 154.422 138.789 197.836 144.424 212.392Z" fill="url(#paint0_linear_31_13)"/>
<path fill-rule="evenodd" clip-rule="evenodd" d="M279.4 183.189C281.614 190.112 280.643 190.378 284.003 196.73L282.996 198.055C282.708 197.804 261.047 171.202 231.443 166.911C194.865 161.609 185.216 178.556 189.161 169.722C189.413 169.157 191.725 163.982 193.575 163.37C231.308 150.872 275.987 182.264 275.987 182.264C275.987 182.264 275.987 182.264 279.4 183.189Z" fill="url(#paint1_linear_31_13)"/>
<path d="M279.368 183.15C272.597 167.764 238.512 77.8531 234.86 68.2183L234.831 68.1422C230.995 58.0204 240.427 47.242 243.844 34.6057C245.963 26.766 247.865 35.5393 248.44 37.0121C253.72 50.5294 309.098 192.306 314.535 205.938C335.815 259.274 355.957 268.017 355.957 268.017C355.004 269.429 354.444 270.943 354.444 270.943C354.444 270.943 339.666 270.348 324.765 270.413C289.97 270.566 289.763 272.101 287.072 270.739C287.072 270.739 296.493 271.009 302.926 261.426C310.191 250.61 284.653 200.834 282.972 198.083C282.981 198.116 282.947 198.043 282.947 198.043C282.955 198.055 282.963 198.069 282.972 198.083C282.952 198.012 282.713 197.417 281.387 194.318C279.469 189.834 281.387 190.207 279.368 183.15Z" fill="#F2F2F2"/>
<path d="M424.44 28.0287H443.944V28.3124C436.71 28.3124 433.519 34.9792 431.816 39.1638L416.426 77.6757H416.142L400.397 38.0999C398.766 33.9154 396.496 28.3124 391.531 28.3124V28.0287H410.397V28.3124H407.206C406.213 28.3124 405.291 28.8088 404.723 29.6599C404.227 30.4401 404.085 31.504 404.44 32.426L419.263 69.5194L431.533 38.7382C432.455 36.3977 432.171 33.7735 430.752 31.6458C429.334 29.589 426.993 28.3124 424.44 28.3124V28.0287ZM466.503 77.392C467.496 77.392 468.418 76.8955 468.914 76.1153C469.482 75.2642 469.623 74.2004 469.269 73.2784L464.588 61.7177H444.303L442.176 66.9661C441.254 69.3066 441.537 71.9308 442.956 74.0585C444.374 76.1153 446.715 77.392 449.268 77.392V77.6757H429.764V77.392C436.998 77.392 440.19 70.7251 441.892 66.5405L457.212 28.0287H457.495L473.311 67.6753C474.943 71.7889 477.212 77.392 482.177 77.392V77.6757H463.24V77.392H466.503ZM444.374 61.434H464.517L454.446 36.185L444.374 61.434ZM488.578 35.7594C488.578 48.3839 516.452 49.0223 516.452 64.6965C516.452 72.0017 509.572 78.2431 500.707 78.2431C492.692 78.2431 488.933 72.9947 486.096 74.9805L485.812 75.0515L484.181 60.7248H484.465C486.025 67.2498 491.841 77.8175 500.707 77.8175C506.38 77.8175 510.92 73.4202 510.849 68.2427C510.849 54.7671 483.614 53.4905 483.614 39.1638C483.614 32.8515 489.642 27.5322 497.302 27.5322C502.834 27.5322 506.593 30.2982 509.43 30.2982C510.281 30.2982 510.707 30.0145 510.636 29.1635H510.92L512.551 43.4192L512.267 43.4902C511.061 38.8092 507.87 27.9577 497.302 27.9577C492.125 27.9577 488.578 31.504 488.578 35.7594ZM561.806 59.7318H562.09L560.459 74.0585L560.175 73.9876C559.962 73.8457 559.678 73.7748 559.395 73.7748C557.054 73.7748 553.153 78.2431 545.21 78.2431C532.869 78.2431 522.869 66.8242 522.869 52.8522C522.869 38.8801 532.869 27.5322 545.21 27.5322C551.522 27.5322 554.43 30.2982 557.338 30.2982C558.118 30.2982 558.615 30.0145 558.544 29.1635H558.827L560.388 43.4192L560.104 43.4902C558.969 38.8092 555.778 27.9577 545.21 27.9577C536.77 27.9577 529.961 39.0929 529.961 52.8522C529.961 66.6115 536.77 77.8175 545.21 77.8175C555.99 77.8175 560.246 66.2569 561.806 59.7318ZM590.784 27.5322C603.125 27.5322 613.125 38.8801 613.125 52.8522C613.125 66.8242 603.125 78.2431 590.784 78.2431C578.443 78.2431 568.443 66.8242 568.443 52.8522C568.443 38.8801 578.443 27.5322 590.784 27.5322ZM590.784 77.8175C599.224 77.8175 606.033 66.6115 606.033 52.8522C606.033 39.0929 599.224 27.9577 590.784 27.9577C582.344 27.9577 575.536 39.0929 575.536 52.8522C575.536 66.6115 582.344 77.8175 590.784 77.8175ZM648.405 28.0287H665.285V28.3124C657.129 28.3124 657.058 36.6814 657.058 40.5823V67.4626V77.6757H656.774L625.355 30.4401V65.1221C625.355 69.0229 625.426 77.392 633.582 77.392V77.6757H616.702V77.392C624.858 77.392 624.929 69.0229 624.929 65.1221V30.8656C624.929 29.4472 623.794 28.3124 622.376 28.3124H616.702V28.0287H630.816L656.632 66.8242V40.5823C656.632 36.6814 656.562 28.3124 648.405 28.3124V28.0287ZM707.741 59.7318H708.025L706.394 74.0585L706.11 73.9876C705.897 73.8457 705.613 73.7748 705.33 73.7748C702.989 73.7748 699.088 78.2431 691.145 78.2431C678.804 78.2431 668.804 66.8242 668.804 52.8522C668.804 38.8801 678.804 27.5322 691.145 27.5322C697.457 27.5322 700.365 30.2982 703.273 30.2982C704.053 30.2982 704.55 30.0145 704.479 29.1635H704.762L706.323 43.4192L706.039 43.4902C704.904 38.8092 701.713 27.9577 691.145 27.9577C682.705 27.9577 675.896 39.0929 675.896 52.8522C675.896 66.6115 682.705 77.8175 691.145 77.8175C701.925 77.8175 706.181 66.2569 707.741 59.7318ZM748.455 64.4128L748.739 64.4837L747.178 77.6757H712.284V77.392H714.34C717.745 77.392 720.511 76.8246 720.511 71.2925V34.4828C720.511 28.8798 717.745 28.3124 714.34 28.3124H712.284V28.0287H746.185L747.746 41.2206L747.462 41.2915C746.682 36.9651 744.838 28.3124 731.717 28.3124H726.398V52.6394H731.433C735.263 52.6394 739.731 52.5685 739.731 44.4122H740.015V61.2922H739.731C739.731 53.1359 735.263 53.0649 731.433 53.0649H726.398V77.392H732.71C745.051 77.392 747.675 68.7392 748.455 64.4128ZM788.418 64.4128L788.701 64.4837L787.212 77.6757H752.317V77.392H754.374C757.778 77.392 760.544 76.8246 760.544 71.2925V34.4828C760.544 28.8798 757.778 28.3124 754.374 28.3124H752.317V28.0287H774.658V28.3124H772.53C769.126 28.3124 766.431 28.8798 766.431 34.4828V77.392H772.672C785.013 77.392 787.637 68.7392 788.418 64.4128ZM814.57 27.5322C826.911 27.5322 836.911 38.8801 836.911 52.8522C836.911 66.8242 826.911 78.2431 814.57 78.2431C802.229 78.2431 792.229 66.8242 792.229 52.8522C792.229 38.8801 802.229 27.5322 814.57 27.5322ZM814.57 77.8175C823.01 77.8175 829.818 66.6115 829.818 52.8522C829.818 39.0929 823.01 27.9577 814.57 27.9577C806.13 27.9577 799.321 39.0929 799.321 52.8522C799.321 66.6115 806.13 77.8175 814.57 77.8175ZM849.018 35.7594C849.018 48.3839 876.891 49.0223 876.891 64.6965C876.891 72.0017 870.011 78.2431 861.146 78.2431C853.131 78.2431 849.372 72.9947 846.536 74.9805L846.252 75.0515L844.621 60.7248H844.904C846.465 67.2498 852.28 77.8175 861.146 77.8175C866.82 77.8175 871.359 73.4202 871.288 68.2427C871.288 54.7671 844.053 53.4905 844.053 39.1638C844.053 32.8515 850.082 27.5322 857.742 27.5322C863.274 27.5322 867.033 30.2982 869.87 30.2982C870.721 30.2982 871.146 30.0145 871.075 29.1635H871.359L872.99 43.4192L872.707 43.4902C871.501 38.8092 868.309 27.9577 857.742 27.9577C852.564 27.9577 849.018 31.504 849.018 35.7594ZM514.091 127.901C516.006 127.901 517.637 129.462 517.637 131.447C517.637 138.114 509.906 141.873 502.388 144.568C505.793 147.335 507.92 151.093 507.92 155.349C507.92 163.576 499.764 170.243 489.693 170.243C478.629 170.243 469.692 163.576 469.692 155.349C469.692 147.973 476.855 141.873 486.288 140.668C479.622 139.746 474.586 135.419 474.586 130.171C474.586 124.284 480.969 119.532 488.842 119.532C496.714 119.532 503.097 124.852 503.097 131.447C503.097 133.008 501.75 134.355 500.119 134.355C498.487 134.355 497.211 133.008 497.211 131.447C497.211 125.064 493.452 119.958 488.842 119.958C484.303 119.958 480.614 124.497 480.614 130.171C480.614 135.845 484.303 140.455 488.842 140.455H494.019V140.88H489.693C482.813 140.88 477.21 147.335 477.21 155.349C477.21 163.292 482.813 169.818 489.693 169.818C499.48 169.818 507.495 163.292 507.495 155.349C507.495 151.59 505.793 148.115 502.743 145.49C502.246 145.065 501.537 144.923 500.899 145.136C492.317 148.115 488.771 148.895 487.707 151.306C488.629 150.455 489.835 149.959 491.182 149.959C494.09 149.959 496.501 152.37 496.501 155.278C496.501 158.257 494.09 160.597 491.182 160.597C488.274 160.597 485.863 158.257 485.863 155.278C485.863 143.788 512.743 139.462 516.644 133.788C516.006 134.497 515.084 134.994 514.091 134.994C512.105 134.994 510.545 133.362 510.545 131.447C510.545 129.462 512.105 127.901 514.091 127.901ZM577.114 169.392C578.107 169.392 579.029 168.895 579.526 168.115C580.093 167.264 580.235 166.2 579.88 165.278L575.199 153.718H554.915L552.787 158.966C551.865 161.307 552.149 163.931 553.567 166.059C554.986 168.115 557.326 169.392 559.88 169.392V169.676H540.375V169.392C547.61 169.392 550.801 162.725 552.503 158.541L567.823 120.029H568.107L583.923 159.675C585.554 163.789 587.824 169.392 592.788 169.392V169.676H573.852V169.392H577.114ZM554.986 153.434H575.128L565.057 128.185L554.986 153.434ZM636.144 165.137C637.917 167.761 640.967 169.392 644.159 169.392V169.676H637.279C634.087 169.676 631.038 168.044 629.265 165.42L619.264 150.384C617.491 147.689 614.512 146.058 611.25 146.058H609.76V163.292C609.76 168.825 612.455 169.392 615.86 169.392H617.988V169.676H595.646V169.392H597.703C601.108 169.392 603.874 168.825 603.874 163.292V126.483C603.874 120.88 601.108 120.312 597.703 120.312H595.646V120.029H615.505C627.491 120.029 633.52 125.844 633.52 133.079C633.52 139.32 628.91 144.568 619.832 145.774C622.03 145.845 624.016 146.909 625.222 148.753L636.144 165.137ZM609.76 120.312V145.774H615.505C623.023 145.774 626.782 140.1 626.782 133.079C626.782 126.057 623.023 120.312 615.505 120.312H609.76ZM683.016 169.392C684.009 169.392 684.931 168.895 685.427 168.115C685.995 167.264 686.136 166.2 685.782 165.278L681.101 153.718H660.816L658.689 158.966C657.767 161.307 658.05 163.931 659.469 166.059C660.887 168.115 663.228 169.392 665.781 169.392V169.676H646.277V169.392C653.511 169.392 656.703 162.725 658.405 158.541L673.725 120.029H674.008L689.824 159.675C691.456 163.789 693.725 169.392 698.69 169.392V169.676H679.753V169.392H683.016ZM660.887 153.434H681.03L670.959 128.185L660.887 153.434ZM714.697 120.029V120.312C711.292 120.312 708.597 120.88 708.597 126.483V154.711C708.597 164.356 712.994 169.818 719.661 169.818C724.13 169.818 728.314 168.257 731.364 165.491C734.485 162.725 736.187 158.895 736.187 154.711V132.582C736.187 128.681 736.116 120.312 727.96 120.312V120.029H744.839V120.312C736.683 120.312 736.612 128.681 736.612 132.582V154.711C736.612 163.647 729.023 170.243 719.661 170.243C710.299 170.243 702.71 163.647 702.71 154.711V126.483C702.71 120.88 699.944 120.312 696.54 120.312H694.483V120.029H714.697ZM728.314 102.439L728.598 102.865L710.938 112.936L710.654 112.511L719.661 100.95L728.314 102.439ZM748.845 120.029H771.115V120.312H769.058C765.654 120.312 762.958 120.88 762.958 126.483V161.519C762.958 172.938 754.944 182.3 744.873 182.584V182.3C751.681 181.591 757.001 174.711 757.001 161.519L757.072 126.483C757.072 120.88 754.306 120.312 750.901 120.312H748.845V120.029ZM796.977 119.532C809.318 119.532 819.318 130.88 819.318 144.852C819.318 158.824 809.318 170.243 796.977 170.243C784.636 170.243 774.636 158.824 774.636 144.852C774.636 130.88 784.636 119.532 796.977 119.532ZM796.977 169.818C805.417 169.818 812.226 158.611 812.226 144.852C812.226 131.093 805.417 119.958 796.977 119.958C788.537 119.958 781.728 131.093 781.728 144.852C781.728 158.611 788.537 169.818 796.977 169.818Z" fill="#F2F2F2"/>
<line x1="395" y1="240.428" x2="533" y2="240.428" stroke="url(#paint2_linear_31_13)" stroke-width="0.495929"/>
<line y1="-0.305358" x2="138" y2="-0.305358" transform="matrix(-1 8.74228e-08 8.74228e-08 1 894 240.676)" stroke="url(#paint3_linear_31_13)" stroke-width="0.610715"/>
<path d="M571.202 226.807L579.409 248.651H577.412L575.508 243.658H564.867L562.994 248.651H560.997L569.204 226.807H571.202ZM565.585 241.786H574.822L570.203 229.459L565.585 241.786ZM596.132 229.678C597.214 230.739 597.984 231.966 598.441 233.36C598.899 234.754 599.128 236.21 599.128 237.729C599.128 239.269 598.899 240.735 598.441 242.129C597.984 243.502 597.214 244.719 596.132 245.78C595.05 246.841 593.802 247.59 592.387 248.027C590.973 248.443 589.516 248.651 588.018 248.651H582.214V226.807H588.018C589.516 226.807 590.973 227.025 592.387 227.462C593.802 227.878 595.05 228.617 596.132 229.678ZM594.822 244.438C595.737 243.565 596.371 242.545 596.725 241.38C597.079 240.194 597.256 238.977 597.256 237.729C597.256 236.481 597.079 235.274 596.725 234.109C596.371 232.923 595.737 231.893 594.822 231.02C593.927 230.146 592.876 229.542 591.67 229.21C590.484 228.856 589.267 228.679 588.018 228.679H584.086V246.779H588.018C589.267 246.779 590.484 246.613 591.67 246.28C592.876 245.926 593.927 245.312 594.822 244.438ZM616.481 226.807H618.478L610.271 248.651H608.274L600.066 226.807H602.064L609.272 245.999L616.481 226.807ZM629.926 226.651C631.383 226.651 632.745 226.942 634.014 227.524C635.284 228.107 636.397 228.898 637.354 229.896C638.311 230.895 639.06 232.07 639.6 233.423C640.162 234.775 640.443 236.21 640.443 237.729C640.443 239.269 640.162 240.714 639.6 242.067C639.06 243.398 638.311 244.563 637.354 245.562C636.397 246.561 635.284 247.351 634.014 247.934C632.745 248.516 631.383 248.807 629.926 248.807C628.47 248.807 627.097 248.516 625.807 247.934C624.538 247.351 623.425 246.561 622.468 245.562C621.532 244.563 620.783 243.398 620.221 242.067C619.68 240.714 619.41 239.269 619.41 237.729C619.41 236.21 619.68 234.775 620.221 233.423C620.783 232.07 621.532 230.895 622.468 229.896C623.425 228.898 624.538 228.107 625.807 227.524C627.097 226.942 628.47 226.651 629.926 226.651ZM629.926 246.935C631.112 246.935 632.225 246.696 633.265 246.217C634.327 245.739 635.242 245.083 636.012 244.251C636.802 243.419 637.426 242.441 637.884 241.318C638.342 240.194 638.571 238.998 638.571 237.729C638.571 236.46 638.342 235.264 637.884 234.14C637.426 233.017 636.802 232.039 636.012 231.207C635.242 230.375 634.327 229.719 633.265 229.241C632.225 228.762 631.112 228.523 629.926 228.523C628.741 228.523 627.617 228.762 626.556 229.241C625.516 229.719 624.6 230.375 623.81 231.207C623.04 232.039 622.426 233.017 621.969 234.14C621.511 235.264 621.282 236.46 621.282 237.729C621.282 238.998 621.511 240.194 621.969 241.318C622.426 242.441 623.04 243.419 623.81 244.251C624.6 245.083 625.516 245.739 626.556 246.217C627.617 246.696 628.741 246.935 629.926 246.935ZM654.093 228.523C652.907 228.523 651.784 228.762 650.723 229.241C649.683 229.719 648.767 230.375 647.977 231.207C647.207 232.039 646.593 233.017 646.136 234.14C645.678 235.264 645.449 236.46 645.449 237.729C645.449 238.998 645.678 240.194 646.136 241.318C646.593 242.441 647.207 243.419 647.977 244.251C648.767 245.083 649.683 245.739 650.723 246.217C651.784 246.696 652.907 246.935 654.093 246.935C655.3 246.935 656.444 246.685 657.526 246.186C658.608 245.687 659.554 244.979 660.366 244.064L661.77 245.312C660.771 246.436 659.606 247.299 658.275 247.902C656.964 248.506 655.57 248.807 654.093 248.807C652.637 248.807 651.264 248.516 649.974 247.934C648.705 247.351 647.592 246.561 646.635 245.562C645.699 244.563 644.95 243.398 644.388 242.067C643.847 240.714 643.577 239.269 643.577 237.729C643.577 236.21 643.847 234.775 644.388 233.423C644.95 232.07 645.699 230.895 646.635 229.896C647.592 228.898 648.705 228.107 649.974 227.524C651.264 226.942 652.637 226.651 654.093 226.651C655.57 226.651 656.964 226.952 658.275 227.556C659.606 228.159 660.771 229.022 661.77 230.146L660.366 231.394C659.554 230.479 658.608 229.771 657.526 229.272C656.444 228.773 655.3 228.523 654.093 228.523ZM673.842 226.807L682.05 248.651H680.053L678.149 243.658H667.507L665.635 248.651H663.638L671.845 226.807H673.842ZM668.225 241.786H677.462L672.844 229.459L668.225 241.786ZM693.498 228.523C692.312 228.523 691.188 228.762 690.127 229.241C689.087 229.719 688.172 230.375 687.381 231.207C686.612 232.039 685.998 233.017 685.54 234.14C685.082 235.264 684.854 236.46 684.854 237.729C684.854 238.998 685.082 240.194 685.54 241.318C685.998 242.441 686.612 243.419 687.381 244.251C688.172 245.083 689.087 245.739 690.127 246.217C691.188 246.696 692.312 246.935 693.498 246.935C694.704 246.935 695.849 246.685 696.931 246.186C698.012 245.687 698.959 244.979 699.77 244.064L701.175 245.312C700.176 246.436 699.011 247.299 697.679 247.902C696.369 248.506 694.975 248.807 693.498 248.807C692.041 248.807 690.668 248.516 689.378 247.934C688.109 247.351 686.996 246.561 686.039 245.562C685.103 244.563 684.354 243.398 683.792 242.067C683.252 240.714 682.981 239.269 682.981 237.729C682.981 236.21 683.252 234.775 683.792 233.423C684.354 232.07 685.103 230.895 686.039 229.896C686.996 228.898 688.109 228.107 689.378 227.524C690.668 226.942 692.041 226.651 693.498 226.651C694.975 226.651 696.369 226.952 697.679 227.556C699.011 228.159 700.176 229.022 701.175 230.146L699.77 231.394C698.959 230.479 698.012 229.771 696.931 229.272C695.849 228.773 694.704 228.523 693.498 228.523ZM706.78 248.651H704.907V226.807H706.78V248.651ZM719.799 226.807L728.007 248.651H726.009L724.106 243.658H713.464L711.592 248.651H709.595L717.802 226.807H719.799ZM714.182 241.786H723.419L718.801 229.459L714.182 241.786Z" fill="white"/>
<defs>
<linearGradient id="paint0_linear_31_13" x1="132.659" y1="0" x2="132.659" y2="271.298" gradientUnits="userSpaceOnUse">
<stop stop-color="#04BF89"/>
<stop offset="0.3125" stop-color="#0B6E52"/>
<stop offset="0.644231" stop-color="#04BF89"/>
<stop offset="1" stop-color="#01402E"/>
</linearGradient>
<linearGradient id="paint1_linear_31_13" x1="236.171" y1="159.191" x2="236.171" y2="198.055" gradientUnits="userSpaceOnUse">
<stop stop-color="#04BF89"/>
<stop offset="0.3125" stop-color="#0B6E52"/>
<stop offset="0.644231" stop-color="#04BF89"/>
<stop offset="1" stop-color="#01402E"/>
</linearGradient>
<linearGradient id="paint2_linear_31_13" x1="395" y1="241.176" x2="533" y2="241.176" gradientUnits="userSpaceOnUse">
<stop stop-color="#F2F2F2" stop-opacity="0"/>
<stop offset="0.5" stop-color="#F2F2F2"/>
</linearGradient>
<linearGradient id="paint3_linear_31_13" x1="0" y1="0.5" x2="138" y2="0.5" gradientUnits="userSpaceOnUse">
<stop stop-color="#F2F2F2" stop-opacity="0"/>
<stop offset="0.5" stop-color="#F2F2F2"/>
</linearGradient>
</defs>
</svg>
